<?xml version="1.0" encoding="UTF-8" standalone="no"?>

<svg
   viewBox="0 0 124.56241 124.5619"
   version="1.1"
   id="svg1"
   xml:space="preserve"
   xmlns="http://www.w3.org/2000/svg"
   xmlns:svg="http://www.w3.org/2000/svg"><defs
     id="defs1" /><g
     id="layer1"
     transform="translate(-25.011525,-33.587669)"><path
       id="path1"
       style="fill:#000000;fill-opacity:1;fill-rule:evenodd;stroke:none;stroke-width:0.600001;stroke-linecap:round;stroke-linejoin:round;stroke-dasharray:none;stroke-opacity:0.745098;paint-order:stroke markers fill"
       d="M 87.292994,33.587669 A 62.281113,62.281113 0 0 0 25.011525,95.868623 62.281113,62.281113 0 0 0 87.292994,158.14957 62.281113,62.281113 0 0 0 149.57394,95.868623 62.281113,62.281113 0 0 0 87.292994,33.587669 Z m -11.225671,9.935828 c 0.798573,0.0024 1.466583,0.02784 1.974556,0.03824 -2.124865,0.374702 -6.249139,1.604969 -10.633459,4.249869 -1.550646,0.935449 -3.24927,2.117523 -4.997111,3.626652 -0.920137,0.794469 -1.896913,1.72045 -2.898531,2.806547 -3.56157,3.861961 -7.290867,9.623238 -9.863998,18.034042 -1.859861,6.079342 -2.968948,13.168585 -2.872176,20.254065 0.04165,3.04978 0.309818,6.00089 0.813387,8.657868 0.473298,2.49724 1.137494,4.63877 1.941484,6.26215 0.79294,1.60341 1.999808,3.39802 3.659208,5.34437 1.576917,1.84961 3.524091,3.79066 5.814115,5.76813 4.315962,3.72688 9.773142,7.51224 15.817123,10.8107 5.654097,3.08569 11.744279,5.69734 17.492472,7.26003 2.75891,0.75002 5.40002,1.2471 7.828977,1.44074 2.38192,0.18988 4.49221,0.0824 6.27404,-0.32195 3.87905,-0.88172 7.01586,-2.31292 9.55652,-4.14807 2.45867,-1.77593 4.40644,-3.96391 5.93917,-6.48642 1.49902,-2.46703 2.59637,-5.24696 3.37447,-8.24084 0.76247,-2.93373 1.20243,-6.01101 1.42937,-9.09867 0.29841,-4.20709 -0.0982,-8.8545 -1.15445,-13.589348 -1.04296,-4.67508 -2.71656,-9.3744 -4.932,-13.717 -2.19993,-4.312194 -4.90974,-8.224692 -8.0114,-11.385864 -3.08407,-3.143249 -6.52694,-5.510625 -10.19317,-6.820255 -3.316107,-1.188007 -7.252807,-2.269809 -11.376049,-2.933154 -4.145435,-0.666916 -8.407478,-0.899344 -12.389425,-0.434599 -1.996521,0.233021 -3.905222,0.639043 -5.686474,1.243852 -1.788334,0.607214 -3.442332,1.412067 -4.931482,2.441194 -1.494562,1.032867 -2.834682,2.29987 -3.982186,3.840076 -1.156041,1.551664 -2.131456,3.401081 -2.867525,5.601725 -1.552751,4.646354 -2.143878,8.896365 -2.090312,12.759945 0.05471,3.94589 0.782553,7.53804 1.895491,10.7797 1.14323,3.329898 2.702682,6.318598 4.389397,8.957078 1.74093,2.72328 3.637773,5.10387 5.386751,7.11894 0.778642,0.89874 1.829543,1.96294 3.086633,3.10111 1.284225,1.16274 2.761142,2.383 4.364075,3.57911 3.363272,2.50966 7.140184,4.81039 10.874272,6.37945 1.898583,0.79779 3.800383,1.41308 5.642549,1.77095 1.818428,0.35327 3.551458,0.45022 5.152138,0.2403 1.572497,-0.20622 3.024697,-0.70849 4.328937,-1.56993 1.28908,-0.85143 2.49765,-2.09585 3.54603,-3.8778 2.62447,-4.4555 4.37864,-8.49929 5.40691,-12.176 1.01115,-3.61552 1.3154,-6.85695 1.07177,-9.7839 -0.2405,-2.889248 -1.01729,-5.502938 -2.2102,-7.902878 -1.18581,-2.38563 -2.79265,-4.57809 -4.71341,-6.61923 -3.91263,-4.15887 -8.559727,-7.7069 -13.031243,-9.797852 -2.231562,-1.043514 -4.350351,-1.69157 -6.261117,-1.907894 -0.953655,-0.107966 -1.840628,-0.106502 -2.656685,-0.0015 -0.816619,0.105024 -1.563014,0.313614 -2.241724,0.622701 -1.640559,0.742856 -3.276763,1.881967 -4.755265,3.312459 -1.494422,1.445896 -2.788968,3.151876 -3.756876,4.977986 -0.983935,1.85635 -1.607492,3.79167 -1.804542,5.68338 -0.199978,1.91982 0.03848,3.7865 0.772046,5.53558 0.410643,0.98063 0.978564,2.0958 1.682068,3.28559 0.711249,1.20288 1.546923,2.458678 2.474785,3.706228 1.910638,2.56893 4.146717,5.01772 6.444567,6.93963 1.176197,0.98376 2.342028,1.80784 3.469039,2.44378 1.152763,0.65046 2.224731,1.08174 3.197738,1.30689 0.988035,0.22863 1.837702,0.2415 2.598291,0.0785 0.758657,-0.16253 1.508331,-0.52126 2.252061,-1.16995 2.04977,-1.79088 3.51209,-3.50001 4.487057,-5.0736 0.51099,-0.82472 0.88392,-1.6054 1.14205,-2.33835 0.26804,-0.76109 0.41425,-1.47577 0.46199,-2.14664 0.0499,-0.7009 -0.006,-1.37578 -0.15865,-2.0314 -0.16159,-0.693378 -0.43675,-1.384808 -0.83199,-2.076358 -0.886487,-1.55112 -2.352167,-3.05488 -4.345467,-4.47777 -0.51977,-0.37028 -1.00381,-0.69725 -1.45314,-0.98753 -1.580205,-1.02087 -2.847415,-1.6637 -3.836976,-2.08205 -1.400083,-0.5919 -2.420283,-0.80749 -3.0856,-0.89968 -0.81089,-0.11237 -1.422784,-0.08173 -1.82056,-0.05685 -0.641535,0.04014 -0.876159,0.05687 -1.021643,-0.04495 -0.113591,-0.0795 -0.278638,-0.4444 0.192753,-1.15446 0.310672,-0.46796 0.996413,-1.14874 2.283581,-1.54409 1.075997,-0.33049 2.592658,-0.46153 4.59972,-0.001 1.386888,0.3182 3.025045,0.92295 4.941305,1.96474 0.54318,0.29531 1.11878,0.63051 1.72754,1.01182 2.421667,1.51929 4.574057,3.38758 6.044587,5.67717 0.66735,1.03906 1.19266,2.16363 1.53272,3.37086 0.32288,1.146198 0.4723,2.344708 0.4284,3.583238 -0.0419,1.1817 -0.25887,2.37703 -0.64802,3.57549 -0.37329,1.1496 -0.90326,2.29587 -1.58233,3.43184 -1.2887,2.15575 -3.12321,4.29044 -5.479257,6.37118 -1.39135,1.22768 -2.96635,2.03831 -4.679297,2.41123 -1.659069,0.36119 -3.340579,0.28886 -4.975924,-0.0894 -1.591426,-0.3681 -3.151804,-1.02803 -4.648295,-1.87637 -1.468831,-0.83266 -2.904707,-1.86335 -4.279842,-3.02152 -2.674858,-2.25282 -5.183171,-5.04231 -7.281209,-7.89926 -1.025808,-1.39686 -1.958946,-2.81732 -2.762105,-4.20077 -0.790289,-1.361288 -1.466231,-2.706408 -1.977657,-3.967718 -1.079403,-2.65992 -1.3708,-5.43211 -1.049549,-8.13801 0.313644,-2.64181 1.207832,-5.20112 2.491321,-7.53442 1.263541,-2.297033 2.919521,-4.401713 4.811076,-6.170682 1.866813,-1.745828 3.995066,-3.193265 6.236312,-4.155302 1.169336,-0.502417 2.395025,-0.806517 3.649389,-0.941544 1.248254,-0.134369 2.521946,-0.101314 3.798735,0.0677 2.536933,0.335818 5.136297,1.213957 7.673435,2.449463 5.065647,2.466812 10.105937,6.467081 14.252357,10.991059 2.12857,2.32192 3.96845,4.87867 5.34076,7.72718 1.38635,2.87765 2.2786,6.01786 2.53008,9.459364 0.25417,3.47853 -0.15069,7.208 -1.30328,11.2236 -1.16926,4.07368 -3.10435,8.42903 -5.8844,13.1067 -1.33787,2.25052 -2.96296,3.95553 -4.81469,5.16609 -1.87123,1.2233 -3.91265,1.90199 -6.01049,2.16938 -2.114587,0.26952 -4.284967,0.12207 -6.418208,-0.29714 -2.163348,-0.42514 -4.32617,-1.13691 -6.413045,-2.0159 -4.09524,-1.72491 -8.149081,-4.19886 -11.707296,-6.83421 -1.70383,-1.26192 -3.28275,-2.55331 -4.668966,-3.79253 -1.350635,-1.20742 -2.528356,-2.3742 -3.446818,-3.41013 -1.850647,-2.08816 -3.908427,-4.60791 -5.824967,-7.52822 -1.857457,-2.83029 -3.622317,-6.09735 -4.944918,-9.791644 -1.290086,-3.60348 -2.168994,-7.63945 -2.289266,-12.09901 -0.117883,-4.37108 0.493393,-9.134012 2.146639,-14.278711 0.848015,-2.637099 2.011956,-4.944125 3.45457,-6.938595 1.433261,-1.98154 3.122949,-3.628987 5.008479,-4.975407 1.872308,-1.336977 3.92025,-2.365186 6.073531,-3.133658 2.141426,-0.764241 4.387511,-1.272024 6.674528,-1.574065 4.544026,-0.600115 9.290962,-0.393402 13.782622,0.259416 4.477748,0.650796 8.742905,1.751367 12.355835,2.972429 4.61406,1.569045 8.76918,4.392247 12.36823,7.960237 3.61208,3.5809 6.69923,7.945097 9.17877,12.659176 2.49968,4.752368 4.40086,9.894448 5.61206,15.033188 1.22461,5.195614 1.75338,10.426344 1.46761,15.308624 -0.18747,3.36013 -0.61647,6.83251 -1.44435,10.23348 -0.84537,3.47277 -2.1072,6.87271 -3.9517,10.00198 -1.8991,3.2219 -4.38765,6.10759 -7.58972,8.46873 -3.30763,2.43897 -7.27059,4.2398 -11.92433,5.32267 -2.6024,0.60499 -5.41672,0.71857 -8.274947,0.4992 -2.93084,-0.22495 -5.990023,-0.80591 -9.054746,-1.63505 -6.369214,-1.72313 -12.949169,-4.56545 -18.941996,-7.85016 -6.418425,-3.51799 -12.248186,-7.57985 -16.940051,-11.68404 -2.487121,-2.1756 -4.665045,-4.37196 -6.473507,-6.53966 -1.893548,-2.26968 -3.406469,-4.5364 -4.455025,-6.75927 -1.095412,-2.3224 -1.853007,-5.0721 -2.339909,-7.9344 -0.524609,-3.083974 -0.753993,-6.405944 -0.729155,-9.747204 0.05762,-7.75058 1.457952,-15.421219 3.713469,-21.977988 3.135022,-9.11348 7.61851,-15.37294 12.039058,-19.421037 1.234978,-1.130925 2.439757,-2.067998 3.575493,-2.843237 2.163516,-1.47679 4.253926,-2.475813 6.132442,-3.15743 3.948915,-1.432859 7.519436,-1.63257 9.915157,-1.625224 z" /></g></svg>
